# xmcd
#
# Track frame offsets:
#	150
#	11686
#	25246
#	35229
#	49458
#	63949
#	78139
#	89738
#	104790
#	117814
#	128101
#	144426
#
# Disc length: 2112 seconds
#
# Revision: 2
# Processed by: cddbd v1.4PL0 Copyright (c) Steve Scherf et al.
# Submitted via: EZCDDA 4.3.2
#
DISCID=a8083e0c
DTITLE=Country Riders - Demo
DYEAR=1900
DGENRE=
TTITLE0=Automne Dans La Valee
TTITLE1=Friends
TTITLE2=Drunk Again
TTITLE3=We All Get Lucky
TTITLE4=IL Est Trop Tard
TTITLE5=Y'a Que Toi
TTITLE6=Old Flames
TTITLE7=I Told A Lie
TTITLE8=There Goes My Heart
TTITLE9=Lover Please
TTITLE10=Carrying Your Love With Me
TTITLE11=Adeluida
EXTD=
EXTT0=
EXTT1=
EXTT2=
EXTT3=
EXTT4=
EXTT5=
EXTT6=
EXTT7=
EXTT8=
EXTT9=
EXTT10=
EXTT11=
PLAYORDER=
